<svg xmlns="http://www.w3.org/2000/svg" xmlns:xlink="http://www.w3.org/1999/xlink"><symbol id="ruble-white"><path d="M288.134 319.2c88.291 0 159.6-71.458 159.6-159.6 0-88.004-71.596-159.6-159.6-159.6H127.467c-8.284 0-15 6.716-15 15v209.933h-33.2c-8.284 0-15 6.716-15 15V304.2c0 8.284 6.716 15 15 15h33.2v34.267h-33.2c-8.284 0-15 6.716-15 15v64.267c0 8.284 6.716 15 15 15h33.2V497c0 8.284 6.716 15 15 15h64.267c8.284 0 15-6.716 15-15v-49.267H304.2c8.284 0 15-6.716 15-15v-64.267c0-8.284-6.716-15-15-15h-97.467V319.2zM206.733 94.267h81.4c36.024 0 65.333 29.309 65.333 65.333s-29.309 65.333-65.333 65.333h-81.4z"/></symbol><symbol id="ruble"><path d="M191.733 512h-64.267c-8.284 0-15-6.716-15-15v-49.267h-33.2c-8.284 0-15-6.716-15-15v-64.267c0-8.284 6.716-15 15-15h33.2V319.2h-33.2c-8.284 0-15-6.716-15-15v-64.267c0-8.284 6.716-15 15-15h33.2V15c0-8.284 6.716-15 15-15h160.667c88.004 0 159.6 71.596 159.6 159.6 0 88.143-71.308 159.6-159.6 159.6h-81.4v34.267H304.2c8.284 0 15 6.716 15 15v64.267c0 8.284-6.716 15-15 15h-97.467V497c0 8.284-6.715 15-15 15zm-49.266-30h34.267v-49.267c0-8.284 6.716-15 15-15H289.2v-34.267h-97.467c-8.284 0-15-6.716-15-15V304.2c0-8.284 6.716-15 15-15h96.4c71.574 0 129.6-57.905 129.6-129.6 0-71.462-58.138-129.6-129.6-129.6H142.467v209.933c0 8.284-6.716 15-15 15h-33.2V289.2h33.2c8.284 0 15 6.716 15 15v64.267c0 8.284-6.716 15-15 15h-33.2v34.267h33.2c8.284 0 15 6.716 15 15z"/><path d="M288.134 254.933h-96.4c-8.284 0-15-6.716-15-15V79.267c0-8.284 6.716-15 15-15h96.4c52.566 0 95.333 42.767 95.333 95.333s-42.767 95.333-95.333 95.333zm-81.401-30h81.4c36.024 0 65.333-29.308 65.333-65.333s-29.309-65.333-65.333-65.333h-81.4z"/></symbol><symbol id="sprite"/></svg>